<svg data-v-423bf9ae="" xmlns="http://www.w3.org/2000/svg" viewBox="0 0 94.3207379159771 60" class="font"><!----><!----><defs data-v-423bf9ae=""><linearGradient data-v-423bf9ae="" gradientTransform="rotate(25)" id="a284b962-9576-4b9b-9b16-934f1a0c221c" x1="0%" y1="0%" x2="100%" y2="0%"><stop data-v-423bf9ae="" offset="0%" style="stop-color: rgb(86, 63, 51); stop-opacity: 1;"></stop><stop data-v-423bf9ae="" offset="100%" style="stop-color: rgb(163, 161, 161); stop-opacity: 1;"></stop></linearGradient></defs><g data-v-423bf9ae="" id="023df314-ceba-4ff2-85a0-74669fe20640" fill="url(#a284b962-9576-4b9b-9b16-934f1a0c221c)" transform="matrix(6.12870278179688,0,0,6.12870278179688,-0.4902966907439321,-4.351378426335579)"><path d="M4.26 9.51L4.23 9.51L4.26 9.51L7.52 0.71L8.47 0.71L4.79 10.50L3.74 10.50L0.08 0.71L1.01 0.71L4.26 9.51ZM13.40 5.42L13.40 5.42L13.40 5.42Q13.85 5.50 14.22 5.68L14.22 5.68L14.22 5.68Q14.60 5.85 14.88 6.13L14.88 6.13L14.88 6.13Q15.16 6.41 15.32 6.81L15.32 6.81L15.32 6.81Q15.47 7.21 15.47 7.74L15.47 7.74L15.47 7.74Q15.47 8.65 15.09 9.20L15.09 9.20L15.09 9.20Q14.71 9.74 14.11 10.03L14.11 10.03L14.11 10.03Q13.51 10.32 12.74 10.41L12.74 10.41L12.74 10.41Q11.97 10.50 11.20 10.50L11.20 10.50L9.67 10.50L9.67 0.73L11.20 0.73L11.20 0.73Q11.91 0.73 12.62 0.78L12.62 0.78L12.62 0.78Q13.33 0.84 13.89 1.08L13.89 1.08L13.89 1.08Q14.46 1.32 14.82 1.82L14.82 1.82L14.82 1.82Q15.18 2.32 15.18 3.21L15.18 3.21L15.18 3.18L15.18 3.18Q15.18 3.74 15.03 4.11L15.03 4.11L15.03 4.11Q14.88 4.48 14.64 4.73L14.64 4.73L14.64 4.73Q14.41 4.98 14.08 5.14L14.08 5.14L14.08 5.14Q13.75 5.29 13.40 5.42ZM10.65 1.58L10.65 1.64L10.65 4.98L11.96 4.98L11.96 4.98Q12.33 4.98 12.74 4.90L12.74 4.90L12.74 4.90Q13.15 4.82 13.48 4.61L13.48 4.61L13.48 4.61Q13.80 4.41 14.01 4.06L14.01 4.06L14.01 4.06Q14.22 3.71 14.22 3.18L14.22 3.18L14.22 3.18Q14.22 2.58 13.96 2.25L13.96 2.25L13.96 2.25Q13.71 1.93 13.34 1.79L13.34 1.79L13.34 1.79Q12.96 1.64 12.56 1.61L12.56 1.61L12.56 1.61Q12.15 1.58 11.84 1.58L11.84 1.58L10.65 1.58ZM10.65 9.66L11.80 9.66L11.80 9.66Q12.35 9.66 12.76 9.58L12.76 9.58L12.76 9.58Q13.17 9.49 13.47 9.36L13.47 9.36L13.47 9.36Q13.76 9.23 13.95 9.05L13.95 9.05L13.95 9.05Q14.14 8.88 14.25 8.69L14.25 8.69L14.25 8.69Q14.52 8.27 14.50 7.73L14.50 7.73L14.50 7.73Q14.50 7.20 14.31 6.83L14.31 6.83L14.31 6.83Q14.11 6.47 13.78 6.25L13.78 6.25L13.78 6.25Q13.44 6.03 13.01 5.94L13.01 5.94L13.01 5.94Q12.57 5.85 12.10 5.85L12.10 5.85L10.65 5.85L10.65 9.66Z"></path></g><!----><!----></svg>